o IndustrialDevice3D
v -1.2000 -1.2000 -0.9000
v 1.2000 -1.2000 -0.9000
v 1.2000 1.2000 -0.9000
v -1.2000 1.2000 -0.9000
v -1.2000 -1.2000 0.9000
v 1.2000 -1.2000 0.9000
v 1.2000 1.2000 0.9000
v -1.2000 1.2000 0.9000
v -1.2500 -1.2500 0.9000
v 1.2500 -1.2500 0.9000
v 1.2500 1.2500 0.9000
v -1.2500 1.2500 0.9000
v -1.2500 -1.2500 1.0000
v 1.2500 -1.2500 1.0000
v 1.2500 1.2500 1.0000
v -1.2500 1.2500 1.0000
v -0.7800 -0.0600 1.0000
v 0.7800 -0.0600 1.0000
v 0.7800 0.7800 1.0000
v -0.7800 0.7800 1.0000
v -0.7800 -0.0600 1.0200
v 0.7800 -0.0600 1.0200
v 0.7800 0.7800 1.0200
v -0.7800 0.7800 1.0200
v -0.9000 0.7000 -1.2000
v 0.9000 0.7000 -1.2000
v 0.9000 1.1000 -1.2000
v -0.9000 1.1000 -1.2000
v -0.9000 0.7000 -0.9000
v 0.9000 0.7000 -0.9000
v 0.9000 1.1000 -0.9000
v -0.9000 1.1000 -0.9000
v -0.9000 -1.1000 -1.2000
v 0.9000 -1.1000 -1.2000
v 0.9000 -0.7000 -1.2000
v -0.9000 -0.7000 -1.2000
v -0.9000 -1.1000 -0.9000
v 0.9000 -1.1000 -0.9000
v 0.9000 -0.7000 -0.9000
v -0.9000 -0.7000 -0.9000
v -0.7200 -0.6000 0.9700
v -0.7200 -0.6000 1.0700
v -0.6000 -0.6000 0.9700
v -0.6000 -0.6000 1.0700
v -0.6091 -0.5541 0.9700
v -0.6091 -0.5541 1.0700
v -0.6351 -0.5151 0.9700
v -0.6351 -0.5151 1.0700
v -0.6741 -0.4891 0.9700
v -0.6741 -0.4891 1.0700
v -0.7200 -0.4800 0.9700
v -0.7200 -0.4800 1.0700
v -0.7659 -0.4891 0.9700
v -0.7659 -0.4891 1.0700
v -0.8049 -0.5151 0.9700
v -0.8049 -0.5151 1.0700
v -0.8309 -0.5541 0.9700
v -0.8309 -0.5541 1.0700
v -0.8400 -0.6000 0.9700
v -0.8400 -0.6000 1.0700
v -0.8309 -0.6459 0.9700
v -0.8309 -0.6459 1.0700
v -0.8049 -0.6849 0.9700
v -0.8049 -0.6849 1.0700
v -0.7659 -0.7109 0.9700
v -0.7659 -0.7109 1.0700
v -0.7200 -0.7200 0.9700
v -0.7200 -0.7200 1.0700
v -0.6741 -0.7109 0.9700
v -0.6741 -0.7109 1.0700
v -0.6351 -0.6849 0.9700
v -0.6351 -0.6849 1.0700
v -0.6091 -0.6459 0.9700
v -0.6091 -0.6459 1.0700
v -0.2400 -0.6000 0.9700
v -0.2400 -0.6000 1.0700
v -0.1200 -0.6000 0.9700
v -0.1200 -0.6000 1.0700
v -0.1291 -0.5541 0.9700
v -0.1291 -0.5541 1.0700
v -0.1551 -0.5151 0.9700
v -0.1551 -0.5151 1.0700
v -0.1941 -0.4891 0.9700
v -0.1941 -0.4891 1.0700
v -0.2400 -0.4800 0.9700
v -0.2400 -0.4800 1.0700
v -0.2859 -0.4891 0.9700
v -0.2859 -0.4891 1.0700
v -0.3249 -0.5151 0.9700
v -0.3249 -0.5151 1.0700
v -0.3509 -0.5541 0.9700
v -0.3509 -0.5541 1.0700
v -0.3600 -0.6000 0.9700
v -0.3600 -0.6000 1.0700
v -0.3509 -0.6459 0.9700
v -0.3509 -0.6459 1.0700
v -0.3249 -0.6849 0.9700
v -0.3249 -0.6849 1.0700
v -0.2859 -0.7109 0.9700
v -0.2859 -0.7109 1.0700
v -0.2400 -0.7200 0.9700
v -0.2400 -0.7200 1.0700
v -0.1941 -0.7109 0.9700
v -0.1941 -0.7109 1.0700
v -0.1551 -0.6849 0.9700
v -0.1551 -0.6849 1.0700
v -0.1291 -0.6459 0.9700
v -0.1291 -0.6459 1.0700
v 0.2400 -0.6000 0.9700
v 0.2400 -0.6000 1.0700
v 0.3600 -0.6000 0.9700
v 0.3600 -0.6000 1.0700
v 0.3509 -0.5541 0.9700
v 0.3509 -0.5541 1.0700
v 0.3249 -0.5151 0.9700
v 0.3249 -0.5151 1.0700
v 0.2859 -0.4891 0.9700
v 0.2859 -0.4891 1.0700
v 0.2400 -0.4800 0.9700
v 0.2400 -0.4800 1.0700
v 0.1941 -0.4891 0.9700
v 0.1941 -0.4891 1.0700
v 0.1551 -0.5151 0.9700
v 0.1551 -0.5151 1.0700
v 0.1291 -0.5541 0.9700
v 0.1291 -0.5541 1.0700
v 0.1200 -0.6000 0.9700
v 0.1200 -0.6000 1.0700
v 0.1291 -0.6459 0.9700
v 0.1291 -0.6459 1.0700
v 0.1551 -0.6849 0.9700
v 0.1551 -0.6849 1.0700
v 0.1941 -0.7109 0.9700
v 0.1941 -0.7109 1.0700
v 0.2400 -0.7200 0.9700
v 0.2400 -0.7200 1.0700
v 0.2859 -0.7109 0.9700
v 0.2859 -0.7109 1.0700
v 0.3249 -0.6849 0.9700
v 0.3249 -0.6849 1.0700
v 0.3509 -0.6459 0.9700
v 0.3509 -0.6459 1.0700
v 0.7200 -0.6000 0.9700
v 0.7200 -0.6000 1.0700
v 0.8400 -0.6000 0.9700
v 0.8400 -0.6000 1.0700
v 0.8309 -0.5541 0.9700
v 0.8309 -0.5541 1.0700
v 0.8049 -0.5151 0.9700
v 0.8049 -0.5151 1.0700
v 0.7659 -0.4891 0.9700
v 0.7659 -0.4891 1.0700
v 0.7200 -0.4800 0.9700
v 0.7200 -0.4800 1.0700
v 0.6741 -0.4891 0.9700
v 0.6741 -0.4891 1.0700
v 0.6351 -0.5151 0.9700
v 0.6351 -0.5151 1.0700
v 0.6091 -0.5541 0.9700
v 0.6091 -0.5541 1.0700
v 0.6000 -0.6000 0.9700
v 0.6000 -0.6000 1.0700
v 0.6091 -0.6459 0.9700
v 0.6091 -0.6459 1.0700
v 0.6351 -0.6849 0.9700
v 0.6351 -0.6849 1.0700
v 0.6741 -0.7109 0.9700
v 0.6741 -0.7109 1.0700
v 0.7200 -0.7200 0.9700
v 0.7200 -0.7200 1.0700
v 0.7659 -0.7109 0.9700
v 0.7659 -0.7109 1.0700
v 0.8049 -0.6849 0.9700
v 0.8049 -0.6849 1.0700
v 0.8309 -0.6459 0.9700
v 0.8309 -0.6459 1.0700
f 1 2 3
f 1 3 4
f 5 7 6
f 5 8 7
f 1 5 6
f 1 6 2
f 3 7 8
f 3 8 4
f 1 4 8
f 1 8 5
f 2 6 7
f 2 7 3
f 9 10 11
f 9 11 12
f 13 15 14
f 13 16 15
f 9 13 14
f 9 14 10
f 11 15 16
f 11 16 12
f 9 12 16
f 9 16 13
f 10 14 15
f 10 15 11
f 17 18 19
f 17 19 20
f 21 23 22
f 21 24 23
f 17 21 22
f 17 22 18
f 19 23 24
f 19 24 20
f 17 20 24
f 17 24 21
f 18 22 23
f 18 23 19
f 25 26 27
f 25 27 28
f 29 31 30
f 29 32 31
f 25 29 30
f 25 30 26
f 27 31 32
f 27 32 28
f 25 28 32
f 25 32 29
f 26 30 31
f 26 31 27
f 33 34 35
f 33 35 36
f 37 39 38
f 37 40 39
f 33 37 38
f 33 38 34
f 35 39 40
f 35 40 36
f 33 36 40
f 33 40 37
f 34 38 39
f 34 39 35
f 43 45 46
f 43 46 44
f 41 45 43
f 42 44 46
f 45 47 48
f 45 48 46
f 41 47 45
f 42 46 48
f 47 49 50
f 47 50 48
f 41 49 47
f 42 48 50
f 49 51 52
f 49 52 50
f 41 51 49
f 42 50 52
f 51 53 54
f 51 54 52
f 41 53 51
f 42 52 54
f 53 55 56
f 53 56 54
f 41 55 53
f 42 54 56
f 55 57 58
f 55 58 56
f 41 57 55
f 42 56 58
f 57 59 60
f 57 60 58
f 41 59 57
f 42 58 60
f 59 61 62
f 59 62 60
f 41 61 59
f 42 60 62
f 61 63 64
f 61 64 62
f 41 63 61
f 42 62 64
f 63 65 66
f 63 66 64
f 41 65 63
f 42 64 66
f 65 67 68
f 65 68 66
f 41 67 65
f 42 66 68
f 67 69 70
f 67 70 68
f 41 69 67
f 42 68 70
f 69 71 72
f 69 72 70
f 41 71 69
f 42 70 72
f 71 73 74
f 71 74 72
f 41 73 71
f 42 72 74
f 73 43 44
f 73 44 74
f 41 43 73
f 42 74 44
f 77 79 80
f 77 80 78
f 75 79 77
f 76 78 80
f 79 81 82
f 79 82 80
f 75 81 79
f 76 80 82
f 81 83 84
f 81 84 82
f 75 83 81
f 76 82 84
f 83 85 86
f 83 86 84
f 75 85 83
f 76 84 86
f 85 87 88
f 85 88 86
f 75 87 85
f 76 86 88
f 87 89 90
f 87 90 88
f 75 89 87
f 76 88 90
f 89 91 92
f 89 92 90
f 75 91 89
f 76 90 92
f 91 93 94
f 91 94 92
f 75 93 91
f 76 92 94
f 93 95 96
f 93 96 94
f 75 95 93
f 76 94 96
f 95 97 98
f 95 98 96
f 75 97 95
f 76 96 98
f 97 99 100
f 97 100 98
f 75 99 97
f 76 98 100
f 99 101 102
f 99 102 100
f 75 101 99
f 76 100 102
f 101 103 104
f 101 104 102
f 75 103 101
f 76 102 104
f 103 105 106
f 103 106 104
f 75 105 103
f 76 104 106
f 105 107 108
f 105 108 106
f 75 107 105
f 76 106 108
f 107 77 78
f 107 78 108
f 75 77 107
f 76 108 78
f 111 113 114
f 111 114 112
f 109 113 111
f 110 112 114
f 113 115 116
f 113 116 114
f 109 115 113
f 110 114 116
f 115 117 118
f 115 118 116
f 109 117 115
f 110 116 118
f 117 119 120
f 117 120 118
f 109 119 117
f 110 118 120
f 119 121 122
f 119 122 120
f 109 121 119
f 110 120 122
f 121 123 124
f 121 124 122
f 109 123 121
f 110 122 124
f 123 125 126
f 123 126 124
f 109 125 123
f 110 124 126
f 125 127 128
f 125 128 126
f 109 127 125
f 110 126 128
f 127 129 130
f 127 130 128
f 109 129 127
f 110 128 130
f 129 131 132
f 129 132 130
f 109 131 129
f 110 130 132
f 131 133 134
f 131 134 132
f 109 133 131
f 110 132 134
f 133 135 136
f 133 136 134
f 109 135 133
f 110 134 136
f 135 137 138
f 135 138 136
f 109 137 135
f 110 136 138
f 137 139 140
f 137 140 138
f 109 139 137
f 110 138 140
f 139 141 142
f 139 142 140
f 109 141 139
f 110 140 142
f 141 111 112
f 141 112 142
f 109 111 141
f 110 142 112
f 145 147 148
f 145 148 146
f 143 147 145
f 144 146 148
f 147 149 150
f 147 150 148
f 143 149 147
f 144 148 150
f 149 151 152
f 149 152 150
f 143 151 149
f 144 150 152
f 151 153 154
f 151 154 152
f 143 153 151
f 144 152 154
f 153 155 156
f 153 156 154
f 143 155 153
f 144 154 156
f 155 157 158
f 155 158 156
f 143 157 155
f 144 156 158
f 157 159 160
f 157 160 158
f 143 159 157
f 144 158 160
f 159 161 162
f 159 162 160
f 143 161 159
f 144 160 162
f 161 163 164
f 161 164 162
f 143 163 161
f 144 162 164
f 163 165 166
f 163 166 164
f 143 165 163
f 144 164 166
f 165 167 168
f 165 168 166
f 143 167 165
f 144 166 168
f 167 169 170
f 167 170 168
f 143 169 167
f 144 168 170
f 169 171 172
f 169 172 170
f 143 171 169
f 144 170 172
f 171 173 174
f 171 174 172
f 143 173 171
f 144 172 174
f 173 175 176
f 173 176 174
f 143 175 173
f 144 174 176
f 175 145 146
f 175 146 176
f 143 145 175
f 144 176 146